<?xml version="1.0" standalone="no"?>
<!DOCTYPE svg PUBLIC "-//W3C//DTD SVG 20010904//EN"
 "http://www.w3.org/TR/2001/REC-SVG-20010904/DTD/svg10.dtd">
<svg version="1.0" xmlns="http://www.w3.org/2000/svg"
 width="474.000000pt" height="117.000000pt" viewBox="0 0 474.000000 117.000000"
 preserveAspectRatio="xMidYMid meet">

<g transform="translate(0.000000,117.000000) scale(0.100000,-0.100000)"
fill="#000000" stroke="none">
<path d="M392 919 c-93 -18 -142 -74 -142 -164 0 -80 37 -126 153 -190 106
-58 129 -81 125 -124 -4 -49 -40 -70 -84 -50 -25 12 -29 20 -32 62 l-3 47 -85
0 -84 0 0 -31 c0 -51 21 -108 52 -138 38 -37 92 -52 185 -52 138 0 204 57 206
179 1 94 -28 132 -150 198 -112 61 -126 74 -126 113 0 37 15 51 55 51 35 0 58
-24 58 -61 l0 -29 76 0 76 0 -4 57 c-4 49 -10 61 -40 89 -52 47 -137 63 -236
43z"/>
<path d="M2345 907 c-71 -28 -105 -77 -105 -152 0 -81 37 -126 160 -194 41
-23 85 -53 98 -67 42 -48 20 -104 -42 -104 -43 0 -56 16 -56 67 l0 43 -80 0
c-95 0 -99 -5 -81 -85 22 -97 100 -141 236 -133 129 7 184 53 192 162 9 108
-9 130 -202 245 -68 40 -85 69 -61 106 33 50 106 21 106 -42 0 -22 4 -23 76
-23 l77 0 -6 45 c-15 108 -68 145 -202 144 -44 0 -94 -6 -110 -12z"/>
<path d="M4181 898 c-83 -43 -86 -51 -89 -286 -3 -203 -3 -208 20 -242 13 -19
43 -45 68 -58 39 -20 56 -23 135 -20 162 7 205 57 205 241 l0 107 -111 0 -110
0 3 -42 c3 -40 5 -43 36 -46 32 -3 32 -4 32 -55 0 -66 -20 -97 -61 -97 -17 0
-39 5 -50 10 -18 10 -19 23 -19 190 0 206 4 218 75 210 31 -3 44 -19 47 -58
l3 -37 78 -3 77 -3 0 38 c0 54 -38 123 -80 147 -25 15 -57 21 -125 24 -79 3
-95 1 -134 -20z"/>
<path d="M895 888 c-11 -48 -105 -564 -105 -575 0 -9 22 -13 79 -13 79 0 79 0
85 27 3 16 22 140 43 277 20 137 38 245 40 240 1 -5 18 -117 38 -249 19 -132
38 -252 41 -268 6 -27 6 -27 85 -27 43 0 79 3 79 6 0 7 -84 468 -101 552 l-10
52 -135 0 c-130 0 -134 -1 -139 -22z"/>
<path d="M1418 843 c-3 -38 -5 -168 -7 -291 -1 -122 -4 -229 -7 -237 -5 -13 7
-15 75 -15 l81 0 1 268 c0 147 3 262 5 256 3 -6 26 -125 53 -265 l48 -254 76
-3 c72 -3 77 -2 82 20 3 13 26 131 50 262 25 132 47 241 50 244 3 3 5 -115 5
-261 l0 -267 75 0 75 0 0 153 c0 85 -3 222 -7 305 l-6 152 -123 0 -122 0 -10
-62 c-6 -35 -23 -139 -38 -233 -32 -196 -28 -201 -75 93 l-32 202 -122 0 -123
0 -4 -67z"/>
<path d="M2817 904 c-12 -13 -8 -463 5 -506 24 -81 110 -124 230 -116 75 6
132 31 162 72 20 26 21 43 24 292 l3 264 -76 0 -75 0 0 -240 c0 -227 -1 -241
-20 -260 -21 -21 -55 -26 -80 -10 -12 8 -16 51 -20 257 l-5 248 -70 3 c-39 1
-74 0 -78 -4z"/>
<path d="M3410 610 l0 -300 77 0 76 0 -5 248 c-3 136 -2 238 2 227 5 -11 40
-123 78 -249 l69 -229 104 2 c57 1 107 6 112 10 4 4 6 138 5 297 l-3 289 -75
0 -74 0 2 -235 2 -235 -39 125 c-21 69 -53 176 -71 238 l-33 112 -113 0 -114
0 0 -300z"/>
</g>
</svg>
